<mxfile host="app.diagrams.net" modified="2023-10-09T10:35:23.117Z" agent="Mozilla/5.0 (Windows NT 10.0; Win64; x64) AppleWebKit/537.36 (KHTML, like Gecko) Chrome/115.0.0.0 Safari/537.36" version="22.0.4" etag="xORysLCn-IKQmWuI62pT" type="github">
  <diagram name="Trang-1" id="QJZbRZGfM-PXYwlzMUmp">
    <mxGraphModel>
      <root>
        <mxCell id="0" />
        <mxCell id="1" parent="0" />
      </root>
    </mxGraphModel>
  </diagram>
</mxfile>
